<svg version="1.1" xmlns="http://www.w3.org/2000/svg" x="0" y="0" viewBox="0 0 200 40" xml:space="preserve">
	<g id="_x23_ffffffff">
		<path class="st0" fill="#ffffff" d="M44.2 0h.3c.5.1.9.4 1 .8.3.7-.1 1.6-.9 1.8-.7.2-1.5-.3-1.6-1-.1-.7.5-1.5 1.2-1.6zM48.6 0h.3c.3.1.7.2.9.5.5.6.2 1.6-.5 2-.7.4-1.6 0-1.8-.8-.3-.7.3-1.6 1.1-1.7zM25.6 4.8H32c.7 0 1.4.1 2 .4 1.4.7 2.3 2.2 2.4 3.7v4.6c0 1.7-.5 3.3-1.6 4.6-.9 1.2-2.2 2.1-3.6 2.6-1.8.6-3.8.4-5.4-.5-2.4-1.2-4-3.8-4-6.4V9c0-1.2.5-2.4 1.4-3.2.5-.5 1.5-.9 2.4-1m-.3 2.8c-.7.2-1.1.9-1.1 1.5v4.5c0 1.1.4 2.2 1.1 3.1.7.9 1.8 1.5 2.9 1.7 1.3.2 2.7-.2 3.8-1 1.1-.9 1.7-2.3 1.8-3.7V9.1c0-.9-.8-1.7-1.6-1.6h-5.8c-.4 0-.8-.1-1.1.1zM40.6 5.7c.7-.6 1.6-.9 2.5-.9h7c1 0 1.9.4 2.6 1.1.7.7 1.1 1.6 1.1 2.5.1 1.8-.6 3.6-1.8 4.9-1.2 1.3-2.9 2.1-4.7 2.1h-3.1c-.8 0-1.7.1-2.5-.2 0 1.1.6 2.2 1.6 2.8.5.3 1 .4 1.5.4h6c.5 0 1 .3 1.2.8.3.8-.2 1.7-1.1 1.8h-6.2c-1.5 0-3-.6-4-1.7s-1.6-2.5-1.6-4V8.6c.1-1 .7-2.1 1.5-2.9m2.1 1.8c-.6.2-.9.7-.9 1.3v2.9c0 .6.6 1.2 1.2 1.2h4.2c.7 0 1.4-.2 2-.5 1.3-.8 2.1-2.3 2.1-3.8 0-.5-.4-.9-.8-1-.3-.1-.6-.1-.8-.1h-7zM65.6 5.4c.2-.4.7-.6 1.1-.6h5.4c1.3 0 2.6.6 3.4 1.6.9 1 1.3 2.5 1.1 3.8-.1 1-.6 2-1.4 2.7 1.1 1.1 1.6 2.6 1.4 4.1-.2 1.8-1.6 3.3-3.3 3.8-.8.2-1.5.2-2.3.2h-4.4c-.7 0-1.2-.6-1.2-1.3 0-.7.5-1.3 1.2-1.3h5.5c.7 0 1.3-.4 1.7-1 .4-.6.4-1.4.1-2-.3-.7-1-1.2-1.8-1.2h-2.8c-.6 0-1.2-.6-1.2-1.3 0-.7.5-1.3 1.2-1.3h2.8c.7 0 1.3-.4 1.7-1 .4-.6.4-1.3.1-2-.3-.7-1-1.2-1.8-1.2h-5.4c-.4 0-.8-.2-1-.5-.4-.3-.4-1-.1-1.5zM86 5c1-.2 2.1-.1 3.1-.2h2.6c1.5.2 2.8 1.7 2.7 3.2v10.4c.6 0 1.2-.1 1.7.1.6.3.9 1.1.6 1.7-.2.4-.7.8-1.2.7H80.2c-.4 0-.9 0-1.3-.3-.6-.5-.7-1.6 0-2.1.6-.5 1.3-.2 2-.3v-7c0-1.4.4-2.7 1.2-3.9 1-1 2.4-2 3.9-2.3m.2 2.7c-1.6.5-2.7 2.1-2.7 3.7v7.1h8.3V8.2c0-.4-.3-.7-.7-.7h-2.8c-.6 0-1.4-.1-2.1.2zM102.5 4.8h5.5c.7 0 1.5-.1 2.2.2 1.3.4 2.4 1.4 2.8 2.7.4 1.1.2 2.2.2 3.3 0 1.6.2 3.3-.4 4.9-.8 2.5-2.9 4.5-5.4 5-1.7.4-3.6.1-5.1-.8-1.9-1.1-3.2-2.9-3.6-5-.2-1.1-.1-2.2-.2-3.3V8.6c.3-2 2-3.7 4-3.8m-.3 2.8c-.7.2-1.1 1-1.1 1.7v4.5c0 1.9 1.3 3.6 3 4.3 1.4.6 3.1.4 4.3-.4 1.3-.9 2.2-2.4 2.2-4V9.1c0-.6-.4-1.2-1-1.5-.3-.2-.7-.1-1.1-.1h-5.7c-.1 0-.4 0-.6.1zM117.5 5.9c.7-.6 1.6-1 2.5-1h7c.8 0 1.5.2 2.2.7.9.7 1.6 1.7 1.7 2.9.1 2-.7 4-2.1 5.3-1.2 1.1-2.8 1.8-4.4 1.8h-4.2c-.5 0-.9-.1-1.3-.2v4.5c0 .7-.6 1.3-1.3 1.3-.7 0-1.3-.6-1.3-1.3V8.8c0-1.2.5-2.2 1.2-2.9m2.3 1.6c-.5.1-.9.6-.9 1.2v3c0 .6.6 1.2 1.2 1.2h4.3c1.6 0 3.1-1.1 3.7-2.5.2-.5.3-1.1.3-1.7 0-.6-.6-1.2-1.2-1.2h-4.8c-.9 0-1.7-.1-2.6 0zM137.4 4.8h6.6c1.7 0 3.3 1.1 3.8 2.7.4 1 .3 2.1.3 3.2v3.6c-.2 1.9-1.1 3.7-2.5 5-1.3 1.2-3 1.8-4.8 1.8-1.7 0-3.3-.6-4.6-1.6-1.5-1.2-2.5-3-2.7-5-.1-1.3 0-2.5-.1-3.8 0-1-.1-2.1.3-3.1.6-1.5 2.1-2.7 3.7-2.8m-.3 2.8c-.6.2-1.1.9-1.1 1.5v4.6c0 1.6.9 3.3 2.4 4.1 1.4.8 3.1.9 4.5.1 1.6-.8 2.6-2.5 2.6-4.2V9.1c0-.8-.7-1.6-1.5-1.6h-6c-.3 0-.6 0-.9.1zM154 4.9c.7-.1 1.4-.1 2.1-.1h5.1c1.8 0 3.4 1.2 4.1 2.9.8 1.8.3 3.9-1 5.3 1.3 1.2 1.8 3.2 1.2 4.9-.6 1.8-2.3 3.1-4.2 3.2h-6.6c-1.9-.1-3.6-1.8-3.6-3.7V9.2c0-.6 0-1.3.3-1.9.3-1.2 1.3-2.1 2.6-2.4m-.5 4v2.8c.4-.1.8-.1 1.2-.1h6.1c.4 0 .7 0 1.1-.2.8-.4 1.3-1.2 1.2-2.1-.1-1-.9-1.9-2-1.9h-6.4c-.7.1-1.2.8-1.2 1.5m0 7.9c0 .3 0 .6.1.9.2.5.7.8 1.2.8h5.4c.4 0 .9 0 1.3-.1.8-.2 1.4-.9 1.5-1.7.1-.9-.4-1.9-1.2-2.2-.4-.2-.9-.2-1.3-.2h-5.8c-.4 0-.8 0-1.2-.1v2.6zM188 4.9c.7-.3 1.5-.2 2.2-.2h6.2c1.9.1 3.5 1.8 3.6 3.7V9c-.1 1.5-.6 2.9-1.6 4-1.2 1.5-3 2.4-4.9 2.4h-4.3c-.4 0-.9-.1-1.3-.2 0 1.2.7 2.3 1.7 2.8.6.3 1.4.3 2.1.3h5.3c.7 0 1.3.6 1.3 1.3 0 .7-.6 1.3-1.3 1.3h-4.9c-.8 0-1.6 0-2.3-.1-1.1-.2-2.2-.9-3-1.7-1-1-1.5-2.5-1.5-3.9V9.5c0-.7 0-1.4.2-2 .3-1.1 1.3-2.2 2.5-2.6m.7 2.6c-.5.2-.9.7-.8 1.2v2.9c0 .6.6 1.2 1.2 1.2h4.2c.8 0 1.6-.2 2.3-.7 1.2-.8 1.9-2.2 1.9-3.7-.1-.6-.6-1.1-1.2-1.1h-6.7c-.4.1-.6.1-.9.2zM1.7 5.6c.9-.7 2.2-.9 3.3-.7 1.8.2 3.4 1.2 4.4 2.6 1.1-1.5 2.9-2.6 4.8-2.7 1-.1 2.1.2 2.9.8 1.1.9 1.6 2.3 1.7 3.6v10.5c0 .7-.6 1.3-1.3 1.3-.7 0-1.3-.6-1.3-1.3V9.2c0-.8-.4-1.6-1.2-1.8-1.7-.3-3.4.9-4 2.5-.4 1-.2 2.1-.3 3.1 0 .7-.6 1.2-1.3 1.2-.6 0-1.2-.5-1.3-1.2-.1-.9.1-1.9-.2-2.8-.4-1.3-1.6-2.5-3.1-2.7-.5-.1-1.1-.1-1.5.3-.5.4-.7 1-.7 1.6v10.4c0 .7-.6 1.3-1.3 1.3-.7 0-1.2-.5-1.3-1.2V9.1c.1-1.3.6-2.7 1.7-3.5zM168.6 6.2c0-.6.4-1.2.9-1.3.6-.2 1.2.1 1.5.6.2.4.2.8.2 1.2v3.9c.4-.1.9-.2 1.3-.2h4.2c1.7 0 3.3.7 4.5 1.9 1.5 1.4 2.2 3.4 2.1 5.4-.2 1.8-1.8 3.4-3.6 3.4h-7.4c-1.9-.1-3.6-1.8-3.6-3.7-.1-3.7-.1-7.5-.1-11.2m3.6 6.8c-.6.1-1.1.7-1.1 1.3v2.9c0 .7.6 1.3 1.2 1.3h7c.6 0 1.1-.4 1.2-.9.1-.4 0-.9-.1-1.4-.4-1.8-2-3.1-3.9-3.2h-4.3z">
		</path>
		<path class="st0" fill="#ffffff" d="M28.3 10.4c.3-.4 1-.4 1.3 0 .3.4.2.9.2 1.4.4 0 1-.1 1.3.2.4.3.4 1.1 0 1.4-.4.3-.9.2-1.3.2 0 .5.1 1-.2 1.4-.3.4-1 .4-1.4 0-.3-.4-.2-.9-.2-1.4-.5 0-1 .1-1.4-.2-.4-.4-.4-1.1 0-1.4.4-.3.9-.2 1.3-.2.2-.4.1-1 .4-1.4zM.3 29.6c0-.3.2-.5.5-.5h5.3c.3 0 .5.3.5.6v7.5c0 .3-.3.6-.6.5-.3-.1-.4-.3-.4-.6V30H1.2v7.2c0 .3-.3.6-.6.5-.3 0-.4-.3-.4-.6.1-2.5.1-5 .1-7.5zM8.8 31.7c0-.4.4-.7.7-.5.3.2.2.7.2 1 1-1.3 3.1-1.4 4.4-.3 1.4 1.3 1.4 3.8-.1 5-1.2 1.1-3.3.9-4.3-.3v2.8c0 .2-.1.4-.3.5h-.3c-.2-.1-.3-.3-.3-.5v-7.7m2.7.5c-.7.1-1.2.6-1.5 1.3-.4 1-.2 2.3.7 3 .8.6 2.1.5 2.8-.2 1-.9.9-2.6 0-3.5-.5-.6-1.3-.8-2-.6zM18.9 31.3c1-.2 2.1 0 2.8.7 1.2 1 1.4 2.8.7 4.1-.6 1.1-1.9 1.8-3.2 1.6-1-.1-2-.7-2.5-1.6-.7-1.2-.5-2.9.5-3.9.6-.5 1.1-.8 1.7-.9m.3.9c-.6.1-1.2.6-1.5 1.2-.5 1-.2 2.4.8 3.1.9.6 2.1.5 2.8-.3.9-.9.9-2.4 0-3.3-.5-.7-1.4-.9-2.1-.7zM30.3 31.7c0-.4.4-.7.7-.5.4.2.2.7.2 1 1-1.3 3.1-1.4 4.3-.3 1.4 1.3 1.4 3.8-.1 5-1.2 1.1-3.3.9-4.3-.3v2.8c0 .2-.1.4-.3.5h-.4c-.2-.1-.3-.3-.3-.5.2-2.5.2-5.1.2-7.7m2.7.5c-.7.1-1.3.6-1.5 1.3-.4 1-.2 2.3.7 3 .8.6 2.1.5 2.8-.2.9-.9.9-2.6 0-3.5-.5-.6-1.3-.8-2-.6zM38.3 32.3c.8-1 2.3-1.4 3.5-.9.8.4 1.2 1.3 1.2 2.2v3.6c0 .4-.4.6-.7.4-.3-.1-.3-.4-.3-.7-.9.9-2.6 1.1-3.6.3-.7-.6-.7-1.7-.1-2.3.4-.4 1.1-.6 1.7-.6h2c0-.6 0-1.3-.5-1.8-.7-.5-1.7-.4-2.3.2-.2.2-.4.5-.7.4-.3-.2-.4-.6-.2-.8m.7 3.1c-.3.4-.1 1.1.4 1.3.7.4 1.7.1 2.2-.5.3-.3.4-.8.4-1.2h-1.9c-.4 0-.8.1-1.1.4zM45.2 31.6c0-.4.6-.6.9-.2l2.4 3.3c.7-1 1.5-2 2.2-3 .1-.2.2-.4.5-.4.3-.1.6.2.6.5v5.5c0 .3-.2.5-.5.5s-.5-.2-.5-.5v-4c-.6.8-1.3 1.7-1.9 2.5-.2.3-.6.2-.8 0-.6-.8-1.3-1.7-1.9-2.5v4c0 .3-.2.5-.5.5s-.5-.2-.5-.5v-5.7zM54 31.6c0-.4.6-.6.9-.2l2.4 3.3c.7-1 1.5-2 2.2-3 .1-.2.2-.4.5-.4.3-.1.6.2.6.5v5.5c0 .3-.2.5-.5.5s-.5-.2-.5-.5v-4c-.6.8-1.3 1.7-1.9 2.5-.2.3-.6.2-.8 0-.6-.8-1.3-1.7-1.9-2.5v4c0 .3-.3.6-.6.5-.3-.1-.4-.3-.4-.6v-5.6zM62.8 32.3c.8-1 2.3-1.4 3.5-.9.8.4 1.2 1.3 1.2 2.2v3.6c0 .4-.4.6-.7.4-.3-.1-.3-.5-.3-.8-.9.9-2.4 1.1-3.5.4-.7-.5-.9-1.7-.3-2.4.4-.5 1.1-.7 1.7-.7h2c0-.6 0-1.3-.5-1.7-.7-.5-1.7-.4-2.3.2-.2.2-.4.5-.7.4-.2-.1-.3-.5-.1-.7m.7 3.1c-.3.4-.1 1 .4 1.3.7.3 1.6.1 2.2-.4.3-.3.5-.8.5-1.3h-1.9c-.5 0-.9.1-1.2.4zM83.1 31.3c1-.2 2.1.1 2.9.8 1.2 1.1 1.4 3 .5 4.3-.9 1.3-2.7 1.8-4.1 1.1-1.3-.6-2-2-1.8-3.4.1-1.4 1.1-2.6 2.5-2.8m.2.9c-.7.1-1.3.7-1.6 1.4-.4 1-.1 2.3.8 2.9.9.6 2.1.5 2.8-.3.9-.9.9-2.4.1-3.3-.5-.7-1.4-.9-2.1-.7zM90.8 31.3c1.2-.3 2.6.2 3.3 1.3.2.4-.3.8-.7.5-.3-.3-.5-.6-.9-.8-.9-.5-2.1-.2-2.7.6-.9 1-.6 2.8.5 3.5.9.6 2.2.4 2.9-.5.2-.3.7-.4.8 0 .2.4-.2.7-.4.9-1.1 1.1-3 1.2-4.2.2-1.1-.8-1.6-2.4-1.1-3.7.5-1 1.4-1.8 2.5-2zM101 31.9c-.2-.3.1-.7.5-.7.2 0 .4.2.5.4.7 1.5 1.4 3.1 2 4.6.7-1.6 1.4-3.2 2.2-4.7.3-.5 1.1-.1.9.5-1 2.1-1.9 4.2-2.9 6.3-.3.6-.6 1.2-1.2 1.6-.5.3-1.1.3-1.6.2-.3 0-.5-.5-.3-.7.2-.2.5-.1.7-.2.4 0 .8-.2 1-.5.3-.4.5-.8.7-1.2-.8-2-1.7-3.8-2.5-5.6zM115.9 31.7c0-.3.2-.5.5-.5s.5.2.5.5v2.1h3.2v-2.2c0-.3.4-.5.7-.4.2.1.3.3.3.6v5.5c-.1.5-.9.5-.9 0v-2.6H117v2.5c0 .3-.2.5-.5.5s-.5-.2-.5-.5c-.1-1.8-.1-3.7-.1-5.5zM125.5 31.3c1-.2 2.1 0 2.8.7 1.2 1 1.5 2.9.6 4.2-.8 1.3-2.6 1.9-4 1.3-1.3-.5-2.2-2-2-3.4.1-1.4 1.2-2.6 2.6-2.8m.2.9c-.7.1-1.3.6-1.5 1.2-.5 1-.2 2.4.8 3 .9.6 2.2.5 2.9-.3.8-.9.8-2.4 0-3.3-.7-.6-1.5-.8-2.2-.6zM138.8 31.3c1-.2 2.1.1 2.8.7 1.2 1 1.4 2.9.6 4.2-.8 1.3-2.6 1.9-4 1.3-1.4-.5-2.2-2-2-3.5.2-1.3 1.2-2.5 2.6-2.7m.2.9c-.6.1-1.2.6-1.5 1.2-.5 1-.2 2.4.7 3.1.9.6 2.1.5 2.8-.3.9-.9.9-2.4.1-3.3-.5-.7-1.4-.9-2.1-.7zM155.5 32.2c.9-1 2.6-1.3 3.8-.6.8.5 1.2 1.3 1.3 2.2 0 .3.1.6-.1.8-.1.2-.4.2-.6.2h-4.3c.1.6.4 1.2.9 1.6.8.6 2.1.6 2.9-.1.2-.1.4-.3.6-.2.3.1.4.6.1.8-1.3 1.3-3.7 1.1-4.8-.3-1-1.3-.9-3.3.2-4.4m1.1.2c-.5.3-.8.9-1 1.5h3.9c0-.5-.2-.9-.5-1.3-.5-.6-1.6-.7-2.4-.2zM161.8 31.7c0-.3.2-.5.5-.5s.5.2.5.5c0 .7-.1 1.4.2 2 .2.4.6.7 1.1.8.6.1 1.3 0 1.9-.2v-2.6c0-.3.2-.5.5-.5s.5.2.5.5v5.5c0 .3-.2.5-.5.5s-.5-.2-.5-.5v-2c-.9.3-1.9.4-2.8 0-.6-.3-1-.8-1.2-1.4-.2-.7-.2-1.4-.2-2.1zM169.7 32.1c1-1 2.7-1.3 3.9-.5.8.6 1.3 1.6 1.2 2.6 0 .3-.3.5-.6.5h-4.4c.1.6.4 1.2.9 1.6.7.5 1.8.6 2.6.1.2-.1.4-.3.6-.4.3-.1.6.1.6.4 0 .3-.3.5-.5.6-1.3 1-3.4.7-4.5-.6-1-1.1-.9-3.1.2-4.3m1.1.3c-.5.3-.8.9-1 1.5h3.9c0-.5-.2-1-.5-1.3-.6-.6-1.6-.6-2.4-.2zM176.9 31.2c.3-.1.6.2.6.5v2.1h3.2v-2.2c0-.3.4-.5.7-.4.2.1.3.4.2.6v5.4c-.1.5-.9.5-.9 0v-2.6h-3.2v2.5c0 .3-.2.5-.5.5s-.5-.2-.5-.5v-5.5c0-.1.2-.3.4-.4zM184 31.7c0-.3.2-.5.5-.5s.5.2.5.5V36c1.2-1.5 2.3-3.1 3.5-4.6.2-.4.8-.2.8.2v5.5c0 .3-.1.5-.4.6-.3.1-.6-.2-.6-.5V33c-1.2 1.5-2.3 3-3.5 4.5-.2.4-.8.2-.9-.2.1-1.9.1-3.7.1-5.6zM24.7 31.9c0-.3.2-.6.5-.6h3.4c.2 0 .5.2.5.4 0 .3-.2.5-.5.5h-2.9v5.1c-.1.5-.9.5-1 0v-5.4zM74.5 31.7c0-.2.3-.4.5-.4h2.9c.3 0 .6.2.6.5v4.9c.3 0 .6-.1.9.1.2.2.2.4.2.6V39c0 .2-.2.5-.5.4-.2 0-.5-.2-.5-.5v-1.5h-5v1.5c0 .3-.3.5-.6.5s-.4-.3-.4-.5v-1.8c0-.3.3-.5.6-.5 1-1 1.1-2.5 1.2-3.8.1-.3.1-.7.1-1.1m1 .5c0 1.1 0 2.1-.3 3.2-.1.5-.4 1-.7 1.4h3.1v-4.5c-.8-.1-1.4-.1-2.1-.1zM95.1 31.4c.2-.2.4-.1.6-.1h4.4c.5.1.4.8 0 .9h-1.9v5c0 .3-.3.6-.6.5-.3-.1-.4-.3-.4-.6v-4.9h-1.9c-.3 0-.5-.5-.2-.8zM108.6 31.8c0-.3.2-.5.5-.5h4.1c.3 0 .5.2.5.5v5.4c0 .3-.2.5-.5.5s-.5-.2-.5-.5v-5h-3.1v5c0 .3-.2.5-.5.5s-.5-.2-.5-.5v-5.4zM131.2 31.8c0-.3.2-.5.5-.5h3.4c.2 0 .5.2.5.4 0 .3-.2.5-.5.5h-2.9v4.9c0 .3-.1.5-.4.6-.3.1-.6-.2-.6-.5v-5.4zM148.7 31.8c0-.3.2-.5.5-.5h3.2c.3 0 .5.3.5.6v5.4c0 .5-.9.6-.9 0v-5.1h-2.2c0 1.3 0 2.7-.5 3.9-.3.7-.9 1.4-1.7 1.6-.3.1-.7-.2-.6-.6.1-.3.5-.3.7-.5.6-.4.8-1.1.9-1.8.1-1 .1-2 .1-3zM192.2 31.8c.9-.7 2.1-.4 3.1-.5.4 0 1-.2 1.2.4V37c0 .2 0 .5-.2.6-.3.2-.7 0-.8-.3v-1.7h-2c-.6.7-1.1 1.4-1.8 2-.4.3-1-.2-.7-.6.5-.6 1-1.1 1.5-1.6-1.3-.6-1.5-2.8-.3-3.6m.6.7c-.6.5-.5 1.4 0 1.9.3.2.7.3 1.1.3h1.6v-2.5h-1.6c-.4 0-.8.1-1.1.3z">
		</path>
	</g>
</svg>
